<svg width="260" height="134" viewBox="0 0 260 134" fill="none" xmlns="http://www.w3.org/2000/svg">
<path d="M237.711 118.719C235.837 118.719 234.141 117.606 233.396 115.886L217.466 79.1063C216.519 76.9192 218.122 74.4775 220.505 74.4775V74.4775C221.837 74.4775 223.039 75.2748 223.557 76.5014L231.354 94.9685C233.762 100.671 241.843 100.671 244.251 94.9685L252.079 76.4299C252.578 75.2466 253.738 74.4775 255.022 74.4775V74.4775C257.319 74.4775 258.866 76.8285 257.956 78.9377L242.03 115.879C241.287 117.603 239.589 118.719 237.711 118.719V118.719Z" fill="white"/>
<path d="M192.783 119.514C188.544 119.514 184.688 118.513 181.215 116.511C177.8 114.451 175.063 111.684 173.002 108.21C171.001 104.737 170 100.851 170 96.5537C170 92.315 170.971 88.4883 172.914 85.0738C174.857 81.6004 177.477 78.8629 180.773 76.8612C184.07 74.8008 187.75 73.7705 191.812 73.7705C195.756 73.7705 199.288 74.8008 202.409 76.8612C205.588 78.8629 208.09 81.6004 209.915 85.0738C211.799 88.4883 212.741 92.315 212.741 96.5537V96.5537C212.741 97.6754 211.831 98.5848 210.71 98.5848H184.756C180.34 98.5848 176.801 102.638 179.184 106.356V106.356C180.715 108.652 182.687 110.477 185.1 111.831C187.514 113.126 190.163 113.774 193.048 113.774C195.344 113.774 197.581 113.42 199.759 112.714C200.945 112.329 202.025 111.858 203.001 111.299C204.329 110.539 206.066 110.597 207.113 111.713V111.713C208.275 112.95 208.101 114.937 206.64 115.803C204.985 116.783 203.28 117.579 201.526 118.189C198.876 119.072 195.962 119.514 192.783 119.514ZM179.361 86.2218C177.062 89.5736 180.284 93.3747 184.348 93.3747H198.59C202.623 93.3747 205.837 89.6359 203.557 86.3101V86.3101C202.203 84.1907 200.495 82.5423 198.435 81.3649C196.374 80.1286 194.108 79.5105 191.635 79.5105C189.104 79.5105 186.778 80.0992 184.659 81.2766C182.54 82.454 180.773 84.1024 179.361 86.2218V86.2218Z" fill="white"/>
<rect x="68.793" y="130.841" width="135.456" height="9.34666" rx="4.67333" transform="rotate(-75 68.793 130.841)" fill="white"/>
<path fill-rule="evenodd" clip-rule="evenodd" d="M92.1294 109.249C91.6296 111.115 92.392 113.106 94.0848 114.035C97.5343 115.93 101.184 117.417 105.018 118.395C109.284 119.589 113.764 120.187 118.458 120.187C124.943 120.187 131.002 118.992 136.634 116.603C142.266 114.299 147.215 111.013 151.482 106.747C155.748 102.565 159.076 97.6585 161.466 92.0265C163.77 86.4799 164.922 80.4639 164.922 73.9785C164.922 67.4932 163.77 61.4345 161.466 55.8025C159.076 50.2559 155.748 45.3492 151.482 41.0825C147.215 36.9012 142.266 33.6158 136.634 31.2265C131.002 28.9225 124.943 27.7705 118.458 27.7705C117.954 27.7705 117.452 27.7774 116.952 27.7911C115.125 27.8413 113.595 29.138 113.122 30.904V30.904C112.305 33.9532 114.933 36.8668 118.09 36.8587C118.127 36.8586 118.164 36.8585 118.202 36.8585C123.407 36.8585 128.271 37.7972 132.794 39.6745C137.231 41.5519 141.114 44.1545 144.442 47.4825C147.77 50.8959 150.372 54.8639 152.25 59.3865C154.042 63.9092 154.938 68.7732 154.938 73.9785C154.938 79.2692 154.042 84.1332 152.25 88.5705C150.372 93.0932 147.812 97.0185 144.57 100.347C141.242 103.76 137.359 106.405 132.922 108.283C128.484 110.16 123.663 111.099 118.458 111.099C112.911 111.099 107.578 109.989 102.458 107.771C101.45 107.351 100.474 106.895 99.5293 106.402C96.7065 104.93 92.9533 106.174 92.1294 109.249V109.249Z" fill="white"/>
<path fill-rule="evenodd" clip-rule="evenodd" d="M72.7925 33.7079C73.2923 31.8425 72.5299 29.8511 70.8371 28.9215C67.3876 27.0272 63.7379 25.5397 59.9041 24.5625C55.6375 23.3678 51.1575 22.7705 46.4641 22.7705C39.9788 22.7705 33.9201 23.9652 28.2881 26.3545C22.6561 28.6585 17.7068 31.9438 13.4401 36.2105C9.17344 40.3918 5.84543 45.2985 3.45609 50.9305C1.1521 56.4772 9.61593e-05 62.4932 8.7963e-05 68.9785C8.7396e-05 75.4638 1.15209 81.5225 3.45609 87.1545C5.84542 92.7012 9.17342 97.6078 13.4401 101.875C17.7068 106.056 22.6561 109.341 28.2881 111.731C33.9201 114.035 39.9788 115.187 46.4641 115.187C46.9676 115.187 47.4695 115.18 47.9698 115.166C49.7973 115.116 51.3268 113.819 51.7999 112.053V112.053C52.617 109.004 49.9889 106.09 46.8321 106.098C46.7948 106.098 46.7575 106.099 46.7201 106.099C41.5148 106.099 36.6508 105.16 32.1281 103.283C27.6908 101.405 23.8081 98.8025 20.4801 95.4745C17.1521 92.0612 14.5494 88.0932 12.6721 83.5705C10.8801 79.0478 9.98409 74.1838 9.98409 68.9785C9.9841 63.6878 10.8801 58.8238 12.6721 54.3865C14.5494 49.8638 17.1094 45.9385 20.3521 42.6105C23.6801 39.1972 27.5628 36.5518 32.0001 34.6745C36.4375 32.7972 41.2588 31.8585 46.4641 31.8585C52.0108 31.8585 57.3441 32.9678 62.4641 35.1865C63.4717 35.6063 64.4479 36.0625 65.3926 36.555C68.2154 38.0265 71.9686 36.7828 72.7925 33.7079V33.7079Z" fill="white"/>
</svg>
