<svg width="260" height="134" viewBox="0 0 260 134" fill="none" xmlns="http://www.w3.org/2000/svg">
<path d="M234.624 118.949L215.461 74.707H222.702L237.803 110.471L252.903 74.707H259.879L240.805 118.949H234.624Z" fill="white"/>
<path d="M192.783 119.743C188.544 119.743 184.688 118.742 181.215 116.741C177.8 114.68 175.063 111.913 173.002 108.44C171.001 104.966 170 101.081 170 96.7832C170 92.5445 170.971 88.7178 172.914 85.3033C174.857 81.8299 177.477 79.0924 180.773 77.0907C184.07 75.0302 187.75 74 191.812 74C195.756 74 199.288 75.0302 202.409 77.0907C205.588 79.0924 208.09 81.8299 209.915 85.3033C211.799 88.7178 212.741 92.5445 212.741 96.7832V98.8143H176.446C176.8 101.699 177.712 104.289 179.184 106.585C180.715 108.881 182.687 110.706 185.1 112.06C187.514 113.355 190.163 114.003 193.048 114.003C195.344 114.003 197.581 113.65 199.759 112.943C201.938 112.237 203.763 111.236 205.234 109.941L209.297 114.268C206.824 116.093 204.234 117.476 201.526 118.418C198.876 119.301 195.962 119.743 192.783 119.743ZM176.623 93.6041H206.206C205.853 90.9549 204.97 88.6001 203.557 86.5396C202.203 84.4202 200.495 82.7718 198.435 81.5944C196.374 80.3581 194.108 79.74 191.635 79.74C189.104 79.74 186.778 80.3287 184.659 81.5061C182.54 82.6835 180.773 84.3319 179.361 86.4513C177.948 88.5118 177.035 90.8961 176.623 93.6041Z" fill="white"/>
<rect x="68.793" y="131.07" width="135.456" height="10.2941" transform="rotate(-75 68.793 131.07)" fill="white"/>
<path fill-rule="evenodd" clip-rule="evenodd" d="M91.2891 112.615C91.8446 112.966 92.4102 113.305 92.9857 113.632C96.6551 115.851 100.666 117.515 105.018 118.624C109.284 119.819 113.764 120.416 118.458 120.416C124.943 120.416 131.002 119.221 136.634 116.832C142.266 114.528 147.215 111.243 151.482 106.976C155.748 102.795 159.076 97.888 161.466 92.256C163.77 86.7094 164.922 80.6933 164.922 74.208C164.922 67.7227 163.77 61.664 161.466 56.032C159.076 50.4853 155.748 45.5787 151.482 41.312C147.215 37.1307 142.266 33.8453 136.634 31.456C131.002 29.152 124.943 28 118.458 28C116.927 28 115.412 28.0635 113.91 28.1905L111.376 37.6478C113.607 37.2746 115.882 37.088 118.202 37.088C123.407 37.088 128.271 38.0267 132.794 39.904C137.231 41.7813 141.114 44.384 144.442 47.712C147.77 51.1253 150.372 55.0933 152.25 59.616C154.042 64.1387 154.938 69.0027 154.938 74.208C154.938 79.4987 154.042 84.3627 152.25 88.8C150.372 93.3227 147.812 97.248 144.57 100.576C141.242 103.989 137.359 106.635 132.922 108.512C128.484 110.389 123.663 111.328 118.458 111.328C112.911 111.328 107.578 110.219 102.458 108C99.2866 106.679 96.4264 104.997 93.8772 102.956L91.2891 112.615Z" fill="white"/>
<path fill-rule="evenodd" clip-rule="evenodd" d="M73.6328 30.8012C73.0773 30.4501 72.5117 30.111 71.9361 29.784C68.2668 27.5653 64.2561 25.9013 59.9041 24.792C55.6375 23.5973 51.1575 23 46.4641 23C39.9788 23 33.9201 24.1947 28.2881 26.584C22.6561 28.888 17.7068 32.1733 13.4401 36.44C9.17344 40.6213 5.84543 45.528 3.45609 51.16C1.1521 56.7066 9.61593e-05 62.7227 8.7963e-05 69.208C8.7396e-05 75.6933 1.15209 81.752 3.45609 87.384C5.84542 92.9307 9.17342 97.8373 13.4401 102.104C17.7068 106.285 22.6561 109.571 28.2881 111.96C33.9201 114.264 39.9788 115.416 46.4641 115.416C47.9945 115.416 49.5103 115.353 51.0114 115.225L53.5454 105.768C51.3151 106.141 49.04 106.328 46.7201 106.328C41.5148 106.328 36.6508 105.389 32.1281 103.512C27.6908 101.635 23.8081 99.032 20.4801 95.704C17.1521 92.2907 14.5494 88.3227 12.6721 83.8C10.8801 79.2773 9.98409 74.4133 9.98409 69.208C9.9841 63.9173 10.8801 59.0533 12.6721 54.616C14.5494 50.0933 17.1094 46.168 20.3521 42.84C23.6801 39.4267 27.5628 36.7813 32.0001 34.904C36.4375 33.0267 41.2588 32.088 46.4641 32.088C52.0108 32.088 57.3441 33.1973 62.4641 35.416C65.6353 36.7373 68.4955 38.4187 71.0447 40.4602L73.6328 30.8012Z" fill="white"/>
</svg>
