<svg width="12" height="11" viewBox="0 0 12 11" fill="none" xmlns="http://www.w3.org/2000/svg">
<path d="M0.721267 6.82103C0.770368 6.829 0.820059 6.83267 0.869777 6.83203L9.33554 6.83203L9.15094 6.91789C8.9705 7.00329 8.80635 7.11952 8.66583 7.26132L6.29182 9.63534C5.97916 9.93381 5.92662 10.4139 6.16733 10.773C6.44747 11.1556 6.98471 11.2386 7.36732 10.9585C7.39823 10.9358 7.42761 10.9112 7.45522 10.8846L11.7482 6.59162C12.0837 6.2565 12.084 5.71288 11.7489 5.37738C11.7486 5.37717 11.7484 5.37693 11.7482 5.37671L7.45522 1.08374C7.11945 0.748919 6.57583 0.74967 6.24098 1.08543C6.21463 1.11186 6.19002 1.13998 6.16733 1.1696C5.92662 1.52863 5.97916 2.00877 6.29182 2.30724L8.66154 4.68554C8.78751 4.81165 8.93235 4.91739 9.09084 4.99893L9.34841 5.11484L0.917026 5.11484C0.478418 5.09855 0.0936079 5.40494 0.0112095 5.83606C-0.0646954 6.30413 0.2532 6.7451 0.721267 6.82103Z" fill="white"/>
</svg>
